<svg width="43" height="32" fill="none" xmlns="http://www.w3.org/2000/svg"><path d="M41.945 17.496c-1.59-6.138-4.431-11.896-4.743-12.518a8.027 8.027 0 01-.165-.626c-.289-1.196-.48-1.883-1.033-2.097L30.522.146a2.231 2.231 0 00-2.07.256c-.63.427-1.34.845-1.567.927h-2.798c.003.536.006.902.009 1.027.027.168.04.337.04.507 0 .807-.297 1.566-.836 2.137a2.76 2.76 0 01-2.517.84c-1.134-.204-2.057-1.143-2.295-2.337a3.188 3.188 0 01-.013-1.207c.002-.129.005-.471.008-.968h-2.18c-.26-.08-1.114-.543-1.742-.918A2.235 2.235 0 0012.48.145l-5.483 2.11c-.553.213-.744.9-1.033 2.096a9.63 9.63 0 01-.159.612c-.318.637-3.16 6.395-4.75 12.532-1.888 7.29-1.24 12.062 1.924 14.181.726.487 1.745.399 2.407-.203l6.52-5.916a4.238 4.238 0 012.847-1.114h13.494c1.044 0 2.056.395 2.848 1.114l6.519 5.916a2 2 0 001.344.527 1.9 1.9 0 001.063-.324c3.164-2.118 3.811-6.889 1.924-14.18zM6.994 9.329c0-2.083 1.602-3.779 3.57-3.779 1.97 0 3.572 1.696 3.572 3.78 0 2.083-1.602 3.778-3.571 3.778-1.97 0-3.571-1.695-3.571-3.779zm14.438 8.267c0 .714-.55 1.296-1.225 1.296h-1.632v1.727c0 .714-.55 1.296-1.225 1.296h-1.836c-.675 0-1.225-.582-1.225-1.296v-1.727h-1.632c-.675 0-1.225-.582-1.225-1.296v-1.943c0-.714.55-1.296 1.225-1.296h1.632V12.63c0-.714.55-1.296 1.225-1.296h1.836c.676 0 1.225.582 1.225 1.296v1.727h1.632c.676 0 1.225.582 1.225 1.296v1.943zm10.56-12.801c.79 0 1.43.677 1.43 1.511 0 .835-.64 1.512-1.43 1.512-.788 0-1.428-.677-1.428-1.512 0-.834.64-1.511 1.429-1.511zm-2.856 3.023c.79 0 1.428.677 1.428 1.511 0 .835-.64 1.512-1.428 1.512-.79 0-1.428-.677-1.428-1.512 0-.834.639-1.511 1.428-1.511zm-2.143 12.847c-1.969 0-3.571-1.695-3.571-3.778 0-2.084 1.602-3.78 3.57-3.78 1.97 0 3.572 1.696 3.572 3.78 0 2.083-1.602 3.778-3.571 3.778zm5-6.801c-.79 0-1.429-.678-1.429-1.512s.64-1.511 1.429-1.511 1.428.677 1.428 1.511c0 .835-.64 1.512-1.428 1.512zm2.857-3.023c-.79 0-1.428-.677-1.428-1.512 0-.834.64-1.511 1.428-1.511.79 0 1.428.677 1.428 1.511 0 .835-.64 1.512-1.428 1.512z" fill="#fff"/><path d="M10.566 11.596c1.183 0 2.142-1.015 2.142-2.267s-.959-2.267-2.143-2.267c-1.183 0-2.143 1.015-2.143 2.267s.96 2.267 2.143 2.267zm6.58 1.25h-1.428v3.023h-2.857v1.511h2.857v3.023h1.428V17.38h2.857v-1.51h-2.857v-3.023zm3.876-8.496a1.37 1.37 0 001.267-.418 1.55 1.55 0 00.393-1.35c-.011-.061-.016-.093-.024-1.253h-2.749c-.007 1.123-.013 1.157-.027 1.22a1.612 1.612 0 000 .642c.12.583.587 1.06 1.14 1.16zm5.971 14.804c1.184 0 2.143-1.015 2.143-2.267 0-1.253-.96-2.268-2.143-2.268-1.184 0-2.143 1.015-2.143 2.268 0 1.252.96 2.267 2.143 2.267z" fill="#fff"/></svg>