<svg width="32" height="32" fill="none" xmlns="http://www.w3.org/2000/svg"><path d="M29.601 0H2.4C1.076 0 0 1.133 0 2.526v20.773c0 1.392 1.076 2.526 2.399 2.526h9.523c.076.983-.33 1.954-1.079 2.51l-.96.713a.674.674 0 00-.155.16c-.67.074-1.195.665-1.195 1.389 0 .773.598 1.403 1.334 1.403h12.266c.736 0 1.334-.63 1.334-1.404 0-.723-.525-1.314-1.194-1.388a.683.683 0 00-.152-.158l-.963-.714c-.75-.556-1.155-1.527-1.08-2.511h9.523c1.323 0 2.399-1.133 2.399-2.526V2.526C32 1.133 30.924 0 29.601 0zM9.223 2.972l.533-.562a.514.514 0 01.754 0 .582.582 0 010 .794l-.533.561a.519.519 0 01-.377.165.519.519 0 01-.377-.165.582.582 0 010-.793zm-.311 1.12a.596.596 0 01.155.4.596.596 0 01-.155.398.537.537 0 01-.379.163.535.535 0 01-.378-.163.593.593 0 010-.797.538.538 0 01.757 0zM7.09 2.41a.514.514 0 01.754 0 .582.582 0 010 .794l-1.6 1.684a.519.519 0 01-.377.165.519.519 0 01-.377-.165.582.582 0 010-.794l1.6-1.684zm-4.8 2.246L4.423 2.41a.514.514 0 01.754 0 .582.582 0 010 .794L3.044 5.45a.519.519 0 01-.377.164.519.519 0 01-.377-.164.582.582 0 010-.794zm3.043.958a.607.607 0 01-.154.399.547.547 0 01-.379.162.535.535 0 01-.379-.162.604.604 0 01-.154-.399c0-.146.058-.292.154-.399a.538.538 0 01.758 0 .607.607 0 01.154.399zM2.29 7.463L3.356 6.34a.514.514 0 01.754 0 .582.582 0 010 .794L3.044 8.257a.519.519 0 01-.377.164.519.519 0 01-.377-.164.582.582 0 010-.794zm0 2.807l4.8-5.053a.514.514 0 01.754 0 .582.582 0 010 .794l-4.8 5.053a.519.519 0 01-.377.164.519.519 0 01-.377-.164.582.582 0 010-.794zm28.643 13.029c0 .773-.598 1.403-1.332 1.403H2.4c-.734 0-1.332-.63-1.332-1.403v-2.527h29.866v2.527z" fill="#fff"/></svg>