<svg width="34" height="32" fill="none" xmlns="http://www.w3.org/2000/svg"><path d="M20.05 1.23h-3.643a.603.603 0 01-.43-.18.62.62 0 010-.87.603.603 0 01.43-.18h3.643a.61.61 0 01.43.18.62.62 0 010 .87.603.603 0 01-.43.18zm7.602 17.166l.012-.012 1.138-.385.516 2.427-1.154.389-.512-2.42zm1.923 3.24l1.392 6.549a.62.62 0 01-.166.558.597.597 0 01-.836.02.611.611 0 01-.191-.399.628.628 0 00-.034-.15l-1.316-6.19 1.151-.388zM25.887 4.282l2.658 12.51-1.154.389-2.703-12.73 1.199-.17zM3.657 32a3.606 3.606 0 01-1.825-.489 3.668 3.668 0 01-1.339-1.348 3.73 3.73 0 01-.008-3.695 3.669 3.669 0 011.332-1.355 3.606 3.606 0 013.646-.004c.554.324 1.015.79 1.335 1.352H3.656a1.81 1.81 0 00-1.288.541 1.86 1.86 0 00-.533 1.306c0 .49.192.959.533 1.305.342.346.805.54 1.288.54h3.142a3.687 3.687 0 01-1.33 1.346A3.625 3.625 0 013.657 32zm16.985-3.077H3.656a.603.603 0 01-.429-.18.62.62 0 010-.87.603.603 0 01.43-.18H21.87c-.004.327-.135.64-.365.87-.23.23-.54.36-.864.36zm1.585-2.461h-2.533l6.936-7.03.45 2.111-4.853 4.919zM30.372 32a3.604 3.604 0 01-2.064-.646 3.678 3.678 0 01-1.338-1.719 3.733 3.733 0 01-.14-2.184 3.696 3.696 0 011.106-1.88l.633 2.983.007.029c.068.46.305.877.664 1.167a1.802 1.802 0 002.469-.187 1.857 1.857 0 00.446-1.629v-.004l-.668-3.133a3.652 3.652 0 011.976 1.581c.452.748.627 1.635.493 2.502a3.705 3.705 0 01-1.226 2.229 3.615 3.615 0 01-2.358.891zM24.318 3.226l-.492-1.995H21.87V0h2.43c.136 0 .267.046.374.13a.616.616 0 01.215.336l.607 2.462-1.178.298z" fill="#025BB1"/></svg>