<svg width="32" height="32" fill="none" xmlns="http://www.w3.org/2000/svg"><path d="M7.564 11.852c.642 0 1.163-.53 1.163-1.185S8.207 9.48 7.564 9.48 6.4 10.012 6.4 10.667c0 .654.521 1.185 1.164 1.185zm5.818 0c.643 0 1.164-.53 1.164-1.185s-.521-1.186-1.164-1.186c-.643 0-1.164.531-1.164 1.186 0 .654.521 1.185 1.164 1.185z" fill="#fff"/><path d="M30.342 15.407H29.09V10.37c0-.817-.652-1.481-1.455-1.481-.802 0-1.454.664-1.454 1.481v5.037h-1.746V10.37c0-.817-.652-1.481-1.454-1.481-.802 0-1.455.664-1.455 1.481v5.037h-.582V0H0v21.333h18.618v2.23c0 2.038 1.628 3.696 3.628 3.696h1.027v2.37h1.056a1.746 1.746 0 01-1.638 1.186h-2.91c-.961 0-1.745-.798-1.745-1.778v-.593c0-2.286-1.827-4.148-4.072-4.148h-.582c-2.245 0-4.073 1.862-4.073 4.148 0 .328.26.593.582.593a.587.587 0 00.582-.593c0-1.633 1.305-2.962 2.909-2.962h.582c1.604 0 2.909 1.329 2.909 2.962v.593c0 1.634 1.305 2.963 2.909 2.963h2.909c1.404 0 2.58-1.02 2.85-2.37h1.805v-2.37h1.026c2 0 3.628-1.659 3.628-3.696v-6.468c0-.931-.744-1.689-1.658-1.689zm-19.87 3.556c-4.49 0-8.145-3.722-8.145-8.296 0-4.575 3.654-8.297 8.146-8.297 4.491 0 8.145 3.722 8.145 8.297 0 4.575-3.654 8.296-8.145 8.296zm15.71 9.481h-1.746V27.26h1.746v1.185zm4.654-10.074H19.782v-1.254a.52.52 0 01.514-.523h1.231v1.185h2.91v-1.185h1.745v1.185h2.909v-1.185h1.25a.5.5 0 01.495.503v1.274z" fill="#fff"/><path d="M11.055 3.586V4.74c0 .327-.26.592-.582.592a.587.587 0 01-.582-.592V3.586c-3.578.303-6.4 3.36-6.4 7.08 0 3.722 2.822 6.779 6.4 7.082v-1.155c0-.328.26-.593.582-.593.321 0 .582.265.582.593v1.155c3.578-.303 6.4-3.36 6.4-7.081 0-3.721-2.822-6.778-6.4-7.081zm-3.491 9.451c-1.284 0-2.328-1.063-2.328-2.37 0-1.308 1.044-2.37 2.328-2.37 1.283 0 2.327 1.062 2.327 2.37 0 1.307-1.044 2.37-2.327 2.37zm5.818 0c-1.284 0-2.327-1.063-2.327-2.37 0-1.308 1.043-2.37 2.327-2.37 1.283 0 2.327 1.062 2.327 2.37 0 1.307-1.044 2.37-2.327 2.37z" fill="#fff"/></svg>