<svg width="34" height="32" fill="none" xmlns="http://www.w3.org/2000/svg"><path d="M30.6 18.963V16h.567v-1.549c0-3.342-1.193-6.564-3.347-9.13a1.74 1.74 0 00.063-.45 1.739 1.739 0 00-.531-1.254C24.846 1.243 20.247 0 17 0S9.155 1.243 6.648 3.617a1.74 1.74 0 00-.531 1.253c0 .062.011.121.017.182-2.125 2.572-3.3 5.893-3.3 9.399V16H3.4v2.963c-1.875 0-3.4 1.595-3.4 3.555v5.926C0 30.405 1.525 32 3.4 32h3.125c1.401 0 2.542-1.193 2.542-2.658V21.8c0-1.405-.984-2.566-2.267-2.79V16h.567v-1.549c0-2.26.774-4.49 2.121-6.175a1.63 1.63 0 001.12-.414c1.28-1.158 4.338-1.936 6.392-1.936 2.055 0 5.113.778 6.391 1.936.24.217.532.354.84.405 1.525 1.721 2.402 3.96 2.402 6.184V16h.567v3.01c-1.283.224-2.267 1.385-2.267 2.79v7.542c0 1.465 1.141 2.658 2.542 2.658H30.6c1.875 0 3.4-1.595 3.4-3.556V22.52c0-1.961-1.525-3.556-3.4-3.556zm-22.739 2.37H6.8a.58.58 0 00-.567.593.58.58 0 00.567.593h1.133v1.185H6.8a.58.58 0 00-.567.592.58.58 0 00.567.593h1.133v1.185H6.8a.58.58 0 00-.567.593.58.58 0 00.567.592h1.133v1.185H6.8a.58.58 0 00-.567.593.58.58 0 00.567.593h1.106c-.13.675-.7 1.185-1.381 1.185H3.967V20.148h2.387c.715 0 1.314.503 1.507 1.185zm-1.628-6.882v.364H3.967v-.364c0-3.055.962-5.96 2.724-8.261l1.687 1.622c-1.388 1.868-2.145 4.2-2.145 6.639zm19.24-6.508c.041-.032.08-.066.118-.102l1.577-1.516a12.99 12.99 0 012.865 8.126v.364h-2.266v-.364c0-2.315-.828-4.642-2.294-6.508zm4.56 22.872h-2.558c-.682 0-1.252-.51-1.38-1.185H27.2a.58.58 0 00.567-.593.58.58 0 00-.567-.593h-1.133V27.26H27.2a.58.58 0 00.567-.592.58.58 0 00-.567-.593h-1.133V24.89H27.2a.58.58 0 00.567-.593.58.58 0 00-.567-.592h-1.133v-1.186H27.2a.58.58 0 00.567-.592.58.58 0 00-.567-.593h-1.061c.193-.682.792-1.185 1.507-1.185h2.387v10.667z" fill="#fff"/></svg>