<svg width="28" height="32" fill="none" xmlns="http://www.w3.org/2000/svg"><path d="M11.69 24.093l-.01-.118a15.658 15.658 0 00-.094-.829l-.015-.09c-.04-.272-.087-.532-.142-.777l-.006-.028a8.84 8.84 0 00-.2-.74 22.667 22.667 0 00-4.7.91c.06.054.116.109.176.16a11.137 11.137 0 001.025.799c.029.02.059.037.088.056.255.17.516.331.784.48l.13.072c.605.327 1.24.596 1.894.805l.108.034c.333.102.672.191 1.016.262 0-.023 0-.045-.003-.069-.01-.32-.026-.631-.05-.927zm4.886-1.842l-.006.027c-.056.246-.101.507-.142.777l-.015.091c-.038.263-.068.541-.093.83l-.012.117c-.024.296-.04.605-.05.928 0 .023 0 .046-.004.069.345-.071.683-.16 1.016-.263l.108-.034a11.084 11.084 0 001.895-.804l.13-.072c.268-.15.53-.31.784-.48.028-.02.059-.037.088-.056.25-.17.491-.356.728-.546.1-.082.199-.169.297-.253.06-.052.116-.107.175-.16a22.651 22.651 0 00-4.699-.91c-.073.232-.139.479-.2.74z" fill="#fff"/><path d="M21.524 30.372l.443-.008a42.052 42.052 0 001.165-.05c.115-.006.232-.012.343-.02.144-.01.282-.02.418-.032l.245-.022c.14-.012.28-.025.41-.04l.032-.004c.316-.036.602-.075.863-.116l.06-.01c.128-.02.248-.043.364-.065l.049-.01a6.22 6.22 0 001.667-.52l.014-.007c.041-.022.079-.043.112-.064.11-.06.209-.14.291-.235-.026-1.973-.952-3.635-2.758-4.95a15.145 15.145 0 01-3.371 2.81l-.063.039c-.18.108-.36.213-.543.314l-.129.07a16.248 16.248 0 01-.697.353 14.906 14.906 0 01-.726.32l-.422.168c-.109.041-.219.08-.329.118-.125.043-.249.088-.375.128-.126.04-.263.08-.396.118-.112.032-.218.065-.33.094-.151.04-.305.076-.46.113-.094.022-.188.046-.28.066-.167.036-.341.066-.513.096-.083.014-.165.031-.248.045-.185.028-.37.051-.557.073-.073.01-.146.021-.219.029-.197.02-.397.034-.597.047-.063.004-.126.012-.19.015a15.243 15.243 0 01-1.59 0c-.063-.003-.126-.01-.189-.015-.2-.013-.4-.027-.598-.047-.072-.008-.145-.02-.218-.028a15.289 15.289 0 01-.556-.074c-.084-.014-.168-.03-.249-.045-.171-.03-.343-.06-.514-.096-.094-.02-.188-.044-.282-.066-.154-.036-.308-.071-.46-.113-.113-.03-.22-.062-.33-.094a12.922 12.922 0 01-.396-.118c-.13-.043-.25-.085-.375-.128-.112-.038-.22-.077-.329-.118-.141-.052-.28-.112-.422-.168-.087-.036-.174-.071-.26-.108a14.688 14.688 0 01-1.163-.565l-.129-.07a16.745 16.745 0 01-.543-.314l-.063-.04A15.148 15.148 0 012.76 24.22C.952 25.534.027 27.196 0 29.169c.083.095.18.174.29.235.034.02.072.042.113.064l.014.007c.529.251 1.09.426 1.667.52l.049.01c.115.022.236.044.364.065l.06.01c.26.041.547.08.863.116l.032.004c.13.015.27.027.41.04l.245.022c.135.011.274.022.418.032.112.008.228.014.343.02.215.013.439.024.672.033l.493.017.443.008c.261.004.522.009.804.009h13.44c.28 0 .543-.005.804-.009zM3.2 26.818a3.745 3.745 0 00-.846 1.532.56.56 0 11-1.083-.287 4.85 4.85 0 011.09-1.993.558.558 0 01.79-.046.564.564 0 01.047.794H3.2zm12.48-12.746c0 .932-.752 1.687-1.68 1.687-.928 0-1.68-.755-1.68-1.687s.752-1.687 1.68-1.687c.928 0 1.68.755 1.68 1.687z" fill="#fff"/><path d="M2.9 15.496c.03.235.063.469.107.699.026.139.06.277.091.414.047.203.098.404.155.603.043.145.089.29.137.435.031.091.066.18.099.27 1.24-.312 2.513-.47 3.791-.47 4.754 0 5.516 4.314 5.591 7.804.098.011.188.017.28.025.28.021.56.043.848.043.287 0 .566-.022.847-.043.094-.008.184-.014.28-.025.078-3.49.84-7.805 5.594-7.805 1.278 0 2.552.159 3.792.47.032-.09.068-.178.098-.269.049-.145.095-.29.138-.435.056-.199.107-.4.154-.603.031-.137.065-.275.091-.414.045-.23.077-.464.107-.699.015-.117.034-.232.046-.35a10.028 10.028 0 000-2.126 6.873 6.873 0 01-2.746.49 6.318 6.318 0 01-3.743-1.383c.185.45.304.925.354 1.41l.003.019a5.068 5.068 0 01-2.346 4.81 5.022 5.022 0 01-5.335 0 5.068 5.068 0 01-2.346-4.81v-.02a5.08 5.08 0 01.354-1.409A6.316 6.316 0 015.6 13.51a6.87 6.87 0 01-2.744-.49 10.13 10.13 0 000 2.127c.009.117.029.232.044.35zm20.62-.862c.31 0 .56.252.56.563a.561.561 0 11-.56-.563zm-2.24 0c.31 0 .56.252.56.563a.56.56 0 11-1.12 0c0-.311.25-.563.56-.563zM14 20.258a.561.561 0 010 1.125.561.561 0 010-1.125zm-7.28-5.624c.31 0 .56.252.56.563a.561.561 0 11-.56-.563zm-2.24 0c.31 0 .56.252.56.563a.56.56 0 11-1.12 0c0-.311.251-.563.56-.563z" fill="#fff"/><path d="M14 18.009a3.933 3.933 0 003.9-4.33c-.003-.031-.008-.06-.012-.091a4.117 4.117 0 00-.045-.295l-.019-.08a4.34 4.34 0 00-.077-.298l-.017-.053a4.067 4.067 0 00-.116-.315l-.01-.023a3.938 3.938 0 00-2.77-2.3c-.017-.003-.032-.008-.048-.012a4.673 4.673 0 00-.358-.056h-.013a3.841 3.841 0 00-.83 0h-.012a3.6 3.6 0 00-.358.056l-.047.013a3.937 3.937 0 00-2.772 2.299l-.01.023a4.22 4.22 0 00-.115.315c-.006.018-.013.035-.018.053-.03.097-.056.198-.076.298l-.02.08a4.293 4.293 0 00-.044.295c-.004.03-.01.06-.013.09a3.933 3.933 0 003.9 4.33zm0-6.749c1.547 0 2.8 1.259 2.8 2.812a2.806 2.806 0 01-2.8 2.812 2.806 2.806 0 01-2.8-2.812A2.81 2.81 0 0114 11.26z" fill="#fff"/><path d="M3.618 23.492l.033.038c.137.15.278.298.422.445l.056.056c.145.145.293.286.443.424l.046.042c.157.142.317.28.48.418l.006.004a13.99 13.99 0 002.702 1.756l.168.084c.132.064.267.123.402.183.09.04.18.08.271.118a16.404 16.404 0 00.691.267l.322.112c.13.042.259.082.39.12.097.03.196.057.294.085a13.683 13.683 0 001.17.263c.085.015.168.032.256.046.164.026.329.047.493.068.081.01.162.023.243.031.177.02.355.032.533.045.07.004.14.012.21.015a15.376 15.376 0 001.501-.002c.07-.003.14-.011.21-.016.179-.012.357-.025.534-.044.082-.008.162-.02.243-.03.164-.022.33-.043.493-.07.086-.013.17-.03.256-.046.156-.028.311-.056.465-.09.092-.02.183-.042.274-.064.144-.034.288-.07.431-.108.098-.027.197-.057.295-.085a9.44 9.44 0 00.71-.233c.112-.04.224-.083.336-.126.12-.046.239-.092.356-.14l.27-.119c.136-.06.27-.119.403-.183.056-.026.112-.056.168-.083a13.999 13.999 0 002.702-1.756l.005-.004c.164-.136.324-.276.48-.419l.047-.041c.15-.138.297-.28.443-.424l.056-.057c.144-.145.284-.294.422-.445l.033-.037c5.065-5.623 4.777-14.266-.65-19.537a13.957 13.957 0 00-19.465 0c-5.427 5.271-5.714 13.914-.65 19.537v.002zM14 1.7c6.801.008 12.312 5.542 12.32 12.372 0 .397-.02.787-.056 1.177 0 .018 0 .038-.005.056-.038.384-.095.761-.168 1.133l-.012.072c-.076.378-.168.75-.28 1.116l-.015.056c-.112.37-.244.735-.392 1.09-.005.014-.008.027-.014.04l-.003.005a12.429 12.429 0 01-3.355 4.634l-.012.012c-.136.117-.274.231-.415.342l-.112.088c-.102.08-.206.156-.311.231-.075.056-.15.113-.228.163-.062.043-.125.084-.188.126-.119.078-.237.155-.357.23l-.05.03a12.078 12.078 0 01-4.754 1.659l-.336.038a1.079 1.079 0 00-.162.017 13.155 13.155 0 01-1.075.053h-.037a12.449 12.449 0 01-1.075-.055v-.003a2.288 2.288 0 00-.162-.011l-.325-.04.112.018c-.088-.01-.176-.023-.264-.035l.155.017-.65-.1v.004a12.078 12.078 0 01-4.117-1.563l-.05-.03c-.12-.074-.239-.152-.357-.23a9.824 9.824 0 01-.416-.289 11.295 11.295 0 01-.311-.23l-.112-.089a13.94 13.94 0 01-.415-.341l-.014-.013a12.427 12.427 0 01-3.355-4.633l-.003-.005-.015-.04a13.33 13.33 0 01-.392-1.09l-.015-.057a11.696 11.696 0 01-.28-1.116c-.005-.023-.008-.047-.012-.071-.073-.372-.13-.75-.168-1.133 0-.019 0-.038-.005-.057-.036-.389-.056-.78-.056-1.176C1.688 7.242 7.199 1.708 14 1.7zM1.12 32H5.6c.377 0 .728-.19.936-.506h-.079l-.453-.006-.51-.017-.689-.033-.352-.023-.437-.034-.683-.061a25.56 25.56 0 01-.952-.13l-.46-.078-.061-.012A7.777 7.777 0 010 30.521v.354A1.126 1.126 0 001.12 32zM28 30.875v-.354a7.787 7.787 0 01-1.87.58l-.443.078-.067.011c-.28.045-.582.085-.918.124-.168.017-.314.034-.46.045l-.688.056-.359.023-.694.033-.504.017-.454.006h-.078c.207.316.558.506.935.506h4.48A1.126 1.126 0 0028 30.875z" fill="#fff"/></svg>