<svg width="34" height="32" fill="none" xmlns="http://www.w3.org/2000/svg"><path d="M9.333 14.857v-2.286H7v2.286a.566.566 0 01-.171.404.59.59 0 01-.412.168H4.083v2.285h2.334a.59.59 0 01.412.168c.11.107.17.252.17.404v2.285h2.334v-2.285c0-.152.062-.297.171-.404a.59.59 0 01.413-.168h2.333V15.43H9.917a.59.59 0 01-.413-.168.566.566 0 01-.17-.404z" fill="#025BB1"/><path d="M15.166 16.571c0-1.356-.41-2.682-1.18-3.81a6.971 6.971 0 00-3.14-2.525 7.135 7.135 0 00-4.045-.39 7.046 7.046 0 00-3.584 1.877 6.815 6.815 0 00-1.916 3.51 6.727 6.727 0 00.398 3.962 6.89 6.89 0 002.579 3.078 7.104 7.104 0 003.889 1.156 7.08 7.08 0 004.947-2.01 6.793 6.793 0 002.052-4.848zM10.5 18.857v2.286a.565.565 0 01-.171.404.59.59 0 01-.412.167h-3.5a.59.59 0 01-.413-.167.565.565 0 01-.17-.404v-2.286H3.5a.59.59 0 01-.413-.167.566.566 0 01-.17-.404v-3.429c0-.151.061-.297.17-.404a.59.59 0 01.413-.167h2.333V12c0-.152.062-.297.171-.404a.59.59 0 01.413-.167h3.5a.59.59 0 01.412.167c.11.107.17.252.17.404v2.286h2.334a.59.59 0 01.413.167c.109.107.17.253.17.404v3.429a.566.566 0 01-.17.404.59.59 0 01-.413.167H10.5zm4.083-7.217V6.857c0-.303-.124-.593-.343-.807a1.183 1.183 0 00-.824-.336 1.188 1.188 0 00-.822.337 1.14 1.14 0 00-.344.806v2.794a8.232 8.232 0 012.333 1.989z" fill="#025BB1"/><path d="M33.926 14.331l-8.72 11.035a.542.542 0 00-.123.348v1.715h-10.5v-1.715a.556.556 0 00-.087-.303l-.957-1.502c-.14-.235-.268-.446-.39-.646-.06-.092-.1-.166-.152-.252a7.966 7.966 0 003.02-4.234 7.811 7.811 0 00-.267-5.16V4c0-.303.123-.594.341-.808a1.184 1.184 0 011.65 0c.22.214.342.505.342.808v11.429h1.167V1.143c0-.303.123-.594.341-.808a1.18 1.18 0 011.65 0c.22.214.342.505.342.808v14.286h1.167V4c0-.303.123-.594.341-.808a1.18 1.18 0 01.825-.335c.31 0 .606.12.825.335.219.214.342.505.342.808v14.857h.583a.594.594 0 00.444-.211l.005.005 4.492-5.28a1.77 1.77 0 012.316-.326l.816.532a.56.56 0 01.187.754zM12.909 32h13.848l-.437-3.429H13.347L12.909 32zM0 7.429h3.5V8.57H0V7.43z" fill="#025BB1"/><path d="M1.167 6.286h1.166v3.428H1.167V6.286zm3.5-1.143h3.5v1.143h-3.5V5.143z" fill="#025BB1"/><path d="M5.833 4H7v3.429H5.833V4zM0 24.571h3.5v1.143H0v-1.143z" fill="#025BB1"/><path d="M1.167 23.429h1.166v3.428H1.167V23.43zm3.5 3.428h3.5V28h-3.5v-1.143z" fill="#025BB1"/><path d="M5.833 25.714H7v3.429H5.833v-3.429z" fill="#025BB1"/></svg>