<svg width="23" height="32" fill="none" xmlns="http://www.w3.org/2000/svg"><path d="M12.546 1.6h-.523a.528.528 0 00-.523.533c0 .295.234.534.523.534h.523a.528.528 0 00.522-.534.528.528 0 00-.522-.533z" fill="#fff"/><path d="M20.962 0H2.038C.914 0 0 .948 0 2.113v27.774C0 31.052.914 32 2.038 32h18.924C22.086 32 23 31.052 23 29.887V2.113C23 .948 22.086 0 20.962 0zM10.654 30.933H2.038c-.547 0-.993-.469-.993-1.046v-2.154h9.61c-.44.392-.723.96-.723 1.6 0 .64.283 1.209.722 1.6zM7.688 6.243l-1.568 1.6a.516.516 0 01-.74 0 .54.54 0 010-.753l1.569-1.6a.515.515 0 01.739 0 .54.54 0 010 .754zm.304.845a.54.54 0 01.743 0c.094.101.151.24.151.379a.567.567 0 01-.151.378.544.544 0 01-.371.155.544.544 0 01-.372-.155.567.567 0 01-.151-.378c0-.139.057-.278.151-.379zm-2.918-.844l-2.09 2.133a.516.516 0 01-.74 0 .54.54 0 010-.754L4.335 5.49a.515.515 0 01.74 0 .54.54 0 010 .754zm.153 2.29a.567.567 0 01-.151.378.544.544 0 01-.371.155.544.544 0 01-.372-.155.567.567 0 01-.151-.379c0-.138.057-.277.151-.378a.54.54 0 01.743 0c.094.101.151.24.151.378zM2.244 10.29L3.29 9.223a.515.515 0 01.739 0 .54.54 0 010 .754l-1.046 1.067a.516.516 0 01-.739 0 .54.54 0 010-.754zm0 2.666l4.705-4.8a.515.515 0 01.739 0 .54.54 0 010 .754l-4.705 4.8a.516.516 0 01-.739 0 .54.54 0 010-.754zM9.04 6.023l.522-.533a.515.515 0 01.74 0 .54.54 0 010 .754l-.523.533a.516.516 0 01-.74 0 .54.54 0 010-.754zM12.023 30.4a1.057 1.057 0 01-1.046-1.067c0-.588.47-1.066 1.046-1.066.576 0 1.045.478 1.045 1.066 0 .589-.469 1.067-1.045 1.067zm9.931-.512c0 .576-.445 1.045-.992 1.045h-7.57a2.14 2.14 0 00.722-1.6 2.14 2.14 0 00-.723-1.6h8.563v2.154zm0-26.688H1.046V2.113c0-.577.446-1.046.993-1.046h18.924c.547 0 .992.469.992 1.046V3.2z" fill="#fff"/></svg>