<svg width="30" height="30" viewBox="0 0 30 30" fill="none" xmlns="http://www.w3.org/2000/svg">
<path d="M15 30C23.2843 30 30 23.2843 30 15C30 6.71573 23.2843 0 15 0C6.71573 0 0 6.71573 0 15C0 23.2843 6.71573 30 15 30Z" fill="#D80027"/>
<path d="M8.20898 9.12891L9.50391 13.1133H13.6934L10.3066 15.5801L11.6016 19.5645L8.20898 17.1035L4.81641 19.5645L6.11719 15.5801L2.72461 13.1133H6.91406L8.20898 9.12891Z" fill="#FFDA44"/>
<path d="M17.7829 23.2325L16.7927 22.0138L15.3279 22.5822L16.1775 21.2638L15.1873 20.0392L16.7048 20.4435L17.5603 19.1251L17.6423 20.6954L19.1657 21.0997L17.6951 21.6622L17.7829 23.2325Z" fill="#FFDA44"/>
<path d="M19.7518 19.6582L20.2206 18.1582L18.9374 17.25L20.5077 17.2266L20.9706 15.7266L21.4803 17.2148L23.0507 17.1973L21.7909 18.1348L22.2948 19.623L21.0116 18.7148L19.7518 19.6582Z" fill="#FFDA44"/>
<path d="M22.4064 11.0098L21.715 12.4219L22.84 13.5176L21.2872 13.2949L20.5958 14.7012L20.3263 13.1543L18.7677 12.9316L20.1622 12.1992L19.8927 10.6465L21.0177 11.7422L22.4064 11.0098Z" fill="#FFDA44"/>
<path d="M17.8243 6.73242L17.7072 8.29688L19.1661 8.88867L17.6368 9.26367L17.5255 10.834L16.6993 9.49805L15.17 9.87305L16.1837 8.67188L15.3517 7.3418L16.8107 7.93359L17.8243 6.73242Z" fill="#FFDA44"/>
</svg>
