<svg width="30" height="30" viewBox="0 0 30 30" fill="none" xmlns="http://www.w3.org/2000/svg">
<path d="M15 30C23.2843 30 30 23.2843 30 15C30 6.71573 23.2843 0 15 0C6.71573 0 0 6.71573 0 15C0 23.2843 6.71573 30 15 30Z" fill="#0052B4"/>
<path d="M15.0007 5.86963L15.4864 7.3643H17.0579L15.7864 8.28803L16.2721 9.78271L15.0007 8.85891L13.7292 9.78271L14.2149 8.28803L12.9435 7.3643H14.515L15.0007 5.86963Z" fill="#FFDA44"/>
<path d="M8.54392 8.54373L9.94431 9.25717L11.0555 8.146L10.8096 9.69815L12.21 10.4116L10.6577 10.6575L10.4119 12.2098L9.69839 10.8094L8.14624 11.0554L9.25747 9.94412L8.54392 8.54373Z" fill="#FFDA44"/>
<path d="M5.86987 15.0002L7.36454 14.5145V12.9429L8.28821 14.2144L9.78294 13.7287L8.85909 15.0002L9.78294 16.2716L8.28821 15.786L7.36454 17.0574V15.4859L5.86987 15.0002Z" fill="#FFDA44"/>
<path d="M8.54392 21.4564L9.25741 20.056L8.14624 18.9448L9.69845 19.1907L10.4118 17.7904L10.6577 19.3426L12.2099 19.5885L10.8097 20.302L11.0555 21.8541L9.94431 20.7429L8.54392 21.4564Z" fill="#FFDA44"/>
<path d="M15.0007 24.1305L14.515 22.6358H12.9435L14.215 21.7121L13.7292 20.2175L15.0007 21.1412L16.2721 20.2175L15.7864 21.7121L17.0579 22.6358H15.4863L15.0007 24.1305Z" fill="#FFDA44"/>
<path d="M21.4568 21.4564L20.0565 20.7429L18.9452 21.8542L19.1911 20.3019L17.7909 19.5885L19.343 19.3426L19.5889 17.7904L20.3023 19.1907L21.8545 18.9448L20.7433 20.0561L21.4568 21.4564Z" fill="#FFDA44"/>
<path d="M24.1305 15.0002L22.6358 15.4859V17.0574L21.7121 15.7859L20.2175 16.2716L21.1413 15.0002L20.2175 13.7287L21.7121 14.2144L22.6358 12.9429V14.5145L24.1305 15.0002Z" fill="#FFDA44"/>
<path d="M21.4568 8.54373L20.7433 9.94412L21.8545 11.0554L20.3023 10.8094L19.5889 12.2097L19.343 10.6575L17.7909 10.4116L19.1911 9.69815L18.9452 8.14606L20.0565 9.25723L21.4568 8.54373Z" fill="#FFDA44"/>
</svg>
