<svg width="30" height="30" fill="none" xmlns="http://www.w3.org/2000/svg"><path d="M15 30c8.284 0 15-6.716 15-15 0-8.284-6.716-15-15-15C6.716 0 0 6.716 0 15c0 8.284 6.716 15 15 15z" fill="#0052B4"/><path d="M15 5.87l.486 1.494h1.572l-1.272.924.486 1.495-1.271-.924-1.272.924.486-1.495-1.271-.924h1.571l.486-1.494zM8.544 8.544l1.4.713 1.111-1.111-.245 1.552 1.4.714-1.552.245-.246 1.553-.714-1.4-1.552.245 1.111-1.11-.713-1.401zM5.87 15l1.495-.486v-1.571l.923 1.271 1.495-.485L8.859 15l.924 1.272-1.495-.486-.923 1.271v-1.571L5.87 15zm2.674 6.456l.713-1.4-1.11-1.111 1.551.246.714-1.4.246 1.552 1.552.245-1.4.714.245 1.552-1.11-1.111-1.401.713zM15 24.13l-.485-1.494h-1.572l1.272-.924-.486-1.494 1.272.923 1.271-.923-.486 1.494 1.272.924h-1.572l-.485 1.495zm6.457-2.674l-1.4-.713-1.112 1.111.246-1.552-1.4-.713 1.552-.246.246-1.553.713 1.4 1.553-.245-1.112 1.111.714 1.4zM24.13 15l-1.494.486v1.571l-.924-1.271-1.494.486L21.14 15l-.923-1.271 1.494.485.924-1.271v1.572L24.13 15zm-2.673-6.456l-.714 1.4 1.112 1.111-1.553-.246-.713 1.4-.246-1.551-1.552-.246 1.4-.714-.246-1.552 1.111 1.111 1.4-.713z" fill="#FFDA44"/></svg>