<svg width="30" height="30" fill="none" xmlns="http://www.w3.org/2000/svg"><g clip-path="url(#clip0)"><path d="M15 30c8.284 0 15-6.716 15-15 0-8.284-6.716-15-15-15C6.716 0 0 6.716 0 15c0 8.284 6.716 15 15 15z" fill="#F0F0F0"/><path d="M29.067 20.217C29.67 18.592 30 16.835 30 15c0-1.835-.33-3.592-.933-5.217H.933A14.968 14.968 0 000 15c0 1.835.33 3.592.933 5.217L15 21.522l14.067-1.305z" fill="#0052B4"/><path d="M15 30c6.45 0 11.948-4.07 14.067-9.783H.933C3.053 25.93 8.55 30 15 30z" fill="#D80027"/></g><defs><clipPath id="clip0"><path fill="#fff" d="M0 0h30v30H0z"/></clipPath></defs></svg>