<svg width="20" height="20" viewBox="0 0 20 20" fill="none" xmlns="http://www.w3.org/2000/svg">
<path d="M10 3.22581C6.26452 3.22581 3.22581 6.26452 3.22581 10C3.22581 13.7355 6.26452 16.7742 10 16.7742C13.7355 16.7742 16.7742 13.7355 16.7742 10C16.7742 6.26452 13.7355 3.22581 10 3.22581ZM10.5444 10.4032H9.375V11.129H11.0282C11.3847 11.129 11.6734 11.4177 11.6734 11.7742C11.6734 12.1306 11.3847 12.4194 11.0282 12.4194H9.375V13.629C9.375 13.9855 9.08629 14.2742 8.72984 14.2742C8.37339 14.2742 8.08468 13.9855 8.08468 13.629V12.4194H7.7621C7.40564 12.4194 7.11694 12.1306 7.11694 11.7742C7.11694 11.4177 7.40564 11.129 7.7621 11.129H8.08468V10.4032H7.7621C7.40564 10.4032 7.11694 10.1145 7.11694 9.75806C7.11694 9.40161 7.40564 9.1129 7.7621 9.1129H8.08468V6.37097C8.08468 6.01452 8.37339 5.72581 8.72984 5.72581H10.5444C11.8339 5.72581 12.8831 6.775 12.8831 8.06452C12.8831 9.35403 11.8339 10.4032 10.5444 10.4032ZM10.5444 7.01613H9.375V9.1129H10.5444C11.1226 9.1129 11.5927 8.64274 11.5927 8.06452C11.5927 7.48629 11.1226 7.01613 10.5444 7.01613ZM10 3.22581C6.26452 3.22581 3.22581 6.26452 3.22581 10C3.22581 13.7355 6.26452 16.7742 10 16.7742C13.7355 16.7742 16.7742 13.7355 16.7742 10C16.7742 6.26452 13.7355 3.22581 10 3.22581ZM10.5444 10.4032H9.375V11.129H11.0282C11.3847 11.129 11.6734 11.4177 11.6734 11.7742C11.6734 12.1306 11.3847 12.4194 11.0282 12.4194H9.375V13.629C9.375 13.9855 9.08629 14.2742 8.72984 14.2742C8.37339 14.2742 8.08468 13.9855 8.08468 13.629V12.4194H7.7621C7.40564 12.4194 7.11694 12.1306 7.11694 11.7742C7.11694 11.4177 7.40564 11.129 7.7621 11.129H8.08468V10.4032H7.7621C7.40564 10.4032 7.11694 10.1145 7.11694 9.75806C7.11694 9.40161 7.40564 9.1129 7.7621 9.1129H8.08468V6.37097C8.08468 6.01452 8.37339 5.72581 8.72984 5.72581H10.5444C11.8339 5.72581 12.8831 6.775 12.8831 8.06452C12.8831 9.35403 11.8339 10.4032 10.5444 10.4032ZM10.5444 7.01613H9.375V9.1129H10.5444C11.1226 9.1129 11.5927 8.64274 11.5927 8.06452C11.5927 7.48629 11.1226 7.01613 10.5444 7.01613ZM10 0C4.47335 0 0 4.47278 0 10C0 15.5267 4.47278 20 10 20C15.5267 20 20 15.5272 20 10C20 4.47335 15.5272 0 10 0ZM10 18.0645C5.55323 18.0645 1.93548 14.4468 1.93548 10C1.93548 5.55323 5.55323 1.93548 10 1.93548C14.4468 1.93548 18.0645 5.55323 18.0645 10C18.0645 14.4468 14.4468 18.0645 10 18.0645ZM10 3.22581C6.26452 3.22581 3.22581 6.26452 3.22581 10C3.22581 13.7355 6.26452 16.7742 10 16.7742C13.7355 16.7742 16.7742 13.7355 16.7742 10C16.7742 6.26452 13.7355 3.22581 10 3.22581ZM10.5444 10.4032H9.375V11.129H11.0282C11.3847 11.129 11.6734 11.4177 11.6734 11.7742C11.6734 12.1306 11.3847 12.4194 11.0282 12.4194H9.375V13.629C9.375 13.9855 9.08629 14.2742 8.72984 14.2742C8.37339 14.2742 8.08468 13.9855 8.08468 13.629V12.4194H7.7621C7.40564 12.4194 7.11694 12.1306 7.11694 11.7742C7.11694 11.4177 7.40564 11.129 7.7621 11.129H8.08468V10.4032H7.7621C7.40564 10.4032 7.11694 10.1145 7.11694 9.75806C7.11694 9.40161 7.40564 9.1129 7.7621 9.1129H8.08468V6.37097C8.08468 6.01452 8.37339 5.72581 8.72984 5.72581H10.5444C11.8339 5.72581 12.8831 6.775 12.8831 8.06452C12.8831 9.35403 11.8339 10.4032 10.5444 10.4032ZM10.5444 7.01613H9.375V9.1129H10.5444C11.1226 9.1129 11.5927 8.64274 11.5927 8.06452C11.5927 7.48629 11.1226 7.01613 10.5444 7.01613Z" fill="#74CA5E"/>
</svg>
