<svg width="20" height="20" viewBox="0 0 20 20" fill="none" xmlns="http://www.w3.org/2000/svg">
<g opacity="0.3">
<path d="M10 0C4.47715 0 0 4.47715 0 10C0 15.5229 4.47715 20 10 20C15.5229 20 20 15.5229 20 10C20 4.47715 15.5229 0 10 0ZM10 18.2422C5.45523 18.2422 1.75781 14.5448 1.75781 10C1.75781 5.45523 5.45523 1.75781 10 1.75781C14.5448 1.75781 18.2422 5.45523 18.2422 10C18.2422 14.5448 14.5448 18.2422 10 18.2422Z" fill="black"/>
<path d="M10 2.92969C6.10141 2.92969 2.92969 6.10141 2.92969 10C2.92969 13.8986 6.10141 17.0703 10 17.0703C13.8986 17.0703 17.0703 13.8986 17.0703 10C17.0703 6.10141 13.8986 2.92969 10 2.92969ZM10.5859 10.2427L6.65781 14.1708L5.82918 13.3422L9.41406 9.75731V4.6875H10.5859V10.2427Z" fill="black"/>
</g>
</svg>
