<svg width="23" height="12" fill="none" xmlns="http://www.w3.org/2000/svg"><path d="M22.795 10.703c-.062-.094-.444-.854-2.284-2.416-1.927-1.635-1.668-1.37.652-4.197 1.413-1.722 1.979-2.774 1.802-3.224-.169-.428-1.208-.315-1.208-.315l-3.456.018s-.256-.031-.447.073c-.185.102-.305.339-.305.339s-.548 1.333-1.278 2.466c-1.54 2.391-2.156 2.517-2.408 2.369-.585-.346-.438-1.391-.438-2.132 0-2.318.383-3.284-.75-3.534-.376-.083-.652-.138-1.614-.147C9.828-.01 8.783.007 8.191.27c-.393.176-.696.57-.511.591.229.028.746.128 1.02.47.356.44.343 1.431.343 1.431s.204 2.728-.476 3.067c-.467.233-1.107-.242-2.48-2.412-.703-1.11-1.235-2.34-1.235-2.34S4.75.85 4.568.728A1.518 1.518 0 004.036.53L.749.55S.256.563.075.759c-.16.174-.013.535-.013.535s2.573 5.504 5.486 8.279c2.673 2.543 5.706 2.376 5.706 2.376h1.374s.416-.042.627-.25c.196-.193.188-.553.188-.553s-.027-1.686.83-1.935c.844-.244 1.928 1.63 3.076 2.352.869.545 1.529.426 1.529.426l3.072-.04s1.607-.09.845-1.246z" fill="#fff"/></svg>