<svg width="44" height="44" fill="none" xmlns="http://www.w3.org/2000/svg"><path d="M22 36.158c7.819 0 14.157-6.339 14.157-14.158 0-7.82-6.338-14.158-14.157-14.158-7.82 0-14.158 6.339-14.158 14.158 0 7.82 6.338 14.158 14.158 14.158z" fill="#EDC96E"/><path d="M41.62 17.288h-.73a19.265 19.265 0 00-2.202-5.313l.517-.516a2.383 2.383 0 000-3.367l-3.297-3.297a2.383 2.383 0 00-3.367 0l-.516.517a19.27 19.27 0 00-5.313-2.203V2.38A2.383 2.383 0 0024.332 0h-4.663a2.383 2.383 0 00-2.381 2.38v.73a19.268 19.268 0 00-5.313 2.201l-.516-.516a2.383 2.383 0 00-3.367 0L4.795 8.092a2.383 2.383 0 000 3.367l.517.516a19.267 19.267 0 00-2.203 5.313H2.38A2.383 2.383 0 000 19.668v4.664a2.383 2.383 0 002.38 2.38h.73a19.267 19.267 0 002.201 5.313l-.516.516a2.383 2.383 0 000 3.367l3.297 3.297a2.383 2.383 0 003.367 0l.516-.517a19.271 19.271 0 005.313 2.203v.728a2.383 2.383 0 002.38 2.38h4.663a2.383 2.383 0 002.381-2.38v-.728a19.27 19.27 0 005.313-2.203l.516.517a2.383 2.383 0 003.367 0l3.297-3.297a2.383 2.383 0 000-3.367l-.517-.516a19.269 19.269 0 002.203-5.313h.728a2.383 2.383 0 002.38-2.38v-4.664a2.383 2.383 0 00-2.38-2.38zm.661 7.044a.662.662 0 01-.661.661h-1.414a.86.86 0 00-.84.683 17.584 17.584 0 01-2.489 6.003.86.86 0 00.112 1.077l1 1a.662.662 0 010 .936l-3.296 3.298a.662.662 0 01-.936 0l-1-1.001a.86.86 0 00-1.078-.112 17.582 17.582 0 01-6.003 2.488.86.86 0 00-.682.841v1.413a.662.662 0 01-.662.662h-4.663a.662.662 0 01-.662-.661v-1.414a.86.86 0 00-.682-.84 17.585 17.585 0 01-6.004-2.489.858.858 0 00-1.077.112l-1 1a.662.662 0 01-.936 0L6.01 34.694a.662.662 0 010-.936l1-1a.86.86 0 00.112-1.078 17.582 17.582 0 01-2.488-6.003.86.86 0 00-.841-.682H2.38a.663.663 0 01-.661-.662V19.67c0-.365.297-.662.661-.662h1.414a.86.86 0 00.84-.682 17.582 17.582 0 012.489-6.004.86.86 0 00-.112-1.077l-1-1a.663.663 0 010-.936L9.307 6.01a.662.662 0 01.935 0l1 1a.86.86 0 001.078.112c1.84-1.2 3.86-2.037 6.003-2.488a.86.86 0 00.682-.841V2.38c0-.364.297-.661.662-.661h4.663c.365 0 .662.297.662.661v1.414a.86.86 0 00.682.84 17.583 17.583 0 016.004 2.489.86.86 0 001.077-.112l1-1a.662.662 0 01.936 0l3.297 3.297a.662.662 0 010 .935l-1 1a.86.86 0 00-.112 1.078 17.58 17.58 0 012.488 6.003.86.86 0 00.841.682h1.413c.365 0 .662.297.662.662v4.664z" fill="#020288"/><path d="M27.636 19.35l-3.328.124.516-6.96a.86.86 0 00-1.566-.548l-7.635 11.16a.86.86 0 00.709 1.345h4.205l-.942 6.962a.86.86 0 001.576.577l7.221-11.339a.86.86 0 00-.756-1.32zm-5.814 8.438l.55-4.061a.859.859 0 00-.852-.975h-3.559l4.913-7.181-.35 4.734a.86.86 0 00.888.922l2.651-.098-4.24 6.659z" fill="#020288"/></svg>