<svg width="34" height="29" fill="none" xmlns="http://www.w3.org/2000/svg"><path d="M33.252 9.2L12.039 3.794a1.002 1.002 0 00-.943.25.982.982 0 00-.276.927l3.26 14.152h-1.276L8.902 2.19a.992.992 0 00-.769-.747L1.198.02A.996.996 0 00.021.788a.988.988 0 00.774 1.167L7.103 3.25l3.936 17.082c.103.45.506.768.97.768h19.6c.505 0 .92-.375.987-.852l1.394-9.954a.988.988 0 00-.738-1.093zm-2.51 9.923H16.124L13.126 6.111l18.769 4.783-1.153 8.23z" fill="#fff"/><path d="M19.036 10.168a.992.992 0 00-.996.988v4.346c0 .545.446.987.996.987s.996-.442.996-.987v-4.346a.992.992 0 00-.996-.988zm8.526 2.371a.992.992 0 00-.996.987v1.976c0 .545.446.987.996.987s.996-.442.996-.987v-1.976a.992.992 0 00-.996-.987zM16.83 22.416c-1.832 0-3.321 1.476-3.321 3.292 0 1.815 1.49 3.292 3.32 3.292 1.83 0 3.32-1.477 3.32-3.292 0-1.816-1.49-3.292-3.32-3.292zm0 4.609c-.733 0-1.329-.591-1.329-1.317s.596-1.317 1.328-1.317c.732 0 1.328.59 1.328 1.317 0 .726-.596 1.317-1.328 1.317zm9.96-4.609c-1.83 0-3.32 1.476-3.32 3.292 0 1.815 1.49 3.292 3.32 3.292 1.83 0 3.32-1.477 3.32-3.292 0-1.816-1.49-3.292-3.32-3.292zm0 4.609c-.732 0-1.328-.591-1.328-1.317s.596-1.317 1.328-1.317c.732 0 1.328.59 1.328 1.317 0 .726-.596 1.317-1.328 1.317zm-3.49-15.54a.992.992 0 00-.997.988v3.029c0 .545.446.987.996.987s.996-.442.996-.987v-3.029a.992.992 0 00-.996-.988z" fill="#fff"/></svg>