<svg width="26" height="26" fill="none" xmlns="http://www.w3.org/2000/svg"><path d="M25.303 19.268l-4.1-4.12a2.372 2.372 0 00-3.375-.004l-.004.004-2.35 2.369a.515.515 0 01-.663.059 26.605 26.605 0 01-3.597-3.046 26.865 26.865 0 01-2.729-3.215.518.518 0 01.051-.67l2.408-2.428a2.42 2.42 0 000-3.399L6.844.683a2.43 2.43 0 00-3.379 0l-1.298 1.31a7.4 7.4 0 00-1.81 7.504 22.147 22.147 0 002.67 5.46 27.86 27.86 0 003.503 4.296 27.536 27.536 0 004.691 3.819 20.803 20.803 0 006.07 2.722 6.97 6.97 0 001.693.206 7.354 7.354 0 005.203-2.207l1.116-1.126a2.42 2.42 0 000-3.399zm-1.033 2.396l-.003.003.007-.023-1.116 1.126a5.805 5.805 0 01-5.51 1.59c-2-.54-3.901-1.4-5.632-2.546A26.068 26.068 0 017.573 18.2a26.395 26.395 0 01-3.32-4.061 20.668 20.668 0 01-2.495-5.091 5.92 5.92 0 011.459-6.011l1.299-1.31a.921.921 0 011.31-.003l.003.003 4.1 4.135a.94.94 0 010 1.324L7.522 9.615a1.991 1.991 0 00-.205 2.575 28.338 28.338 0 002.883 3.392 28.042 28.042 0 003.793 3.215 1.965 1.965 0 002.525-.22l2.327-2.384a.921.921 0 011.314 0l4.108 4.15a.94.94 0 01.003 1.32z" fill="#74CA5E"/></svg>