<svg width="20" height="20" fill="none" xmlns="http://www.w3.org/2000/svg"><path d="M10 0C4.479 0 0 4.473 0 9.995 0 15.52 4.479 20 10 20c5.524 0 10-4.479 10-10.005C20 4.473 15.523 0 10 0zm.713 15.559c-.233.207-.502.31-.807.31-.315 0-.59-.101-.825-.306-.236-.204-.353-.49-.353-.857 0-.325.114-.6.341-.822.227-.222.506-.333.837-.333.326 0 .6.111.822.333.223.223.334.497.334.822 0 .362-.117.646-.35.853zm2.896-7.18c-.179.331-.39.617-.636.857s-.686.645-1.323 1.213c-.175.16-.316.302-.422.423a1.719 1.719 0 00-.236.333 1.6 1.6 0 00-.12.303c-.029.1-.071.278-.129.531-.098.538-.405.806-.922.806a.945.945 0 01-.679-.263c-.183-.176-.275-.437-.275-.783 0-.434.068-.81.202-1.128a2.85 2.85 0 01.535-.838c.222-.24.522-.526.9-.857.33-.29.57-.507.716-.655.148-.147.272-.311.372-.492.102-.181.151-.377.151-.59 0-.413-.153-.761-.46-1.046-.308-.284-.705-.426-1.191-.426-.569 0-.988.143-1.256.43-.27.287-.496.71-.682 1.268-.177.584-.51.876-1 .876a.984.984 0 01-.734-.306c-.198-.204-.298-.425-.298-.663 0-.49.158-.989.473-1.493.316-.504.776-.921 1.38-1.252.605-.33 1.31-.496 2.117-.496.75 0 1.41.138 1.984.415.574.276 1.018.652 1.33 1.128.313.476.47.992.47 1.55 0 .44-.089.824-.267 1.155z" fill="gray"/></svg>