<svg width="42" height="44" fill="none" xmlns="http://www.w3.org/2000/svg"><path d="M23.834 42.281H7.198V11.398h4.579v4.408a.86.86 0 001.718 0v-4.408h11.736v4.408a.86.86 0 001.719 0v-4.408h4.435V20.4a.86.86 0 001.72 0v-9.86a.86.86 0 00-.86-.86H26.95V7.55c0-4.162-3.404-7.55-7.587-7.55-.958 0-1.875.178-2.72.501A7.582 7.582 0 0013.926 0C9.74 0 6.338 3.387 6.338 7.55v2.13H1.043a.86.86 0 00-.86.859v29.385A4.083 4.083 0 004.266 44H26.77a3.363 3.363 0 01-2.935-1.719zM19.363 1.72c3.236 0 5.868 2.616 5.868 5.83v2.13h-3.72V7.55a7.523 7.523 0 00-2.737-5.801c.194-.02.39-.03.589-.03zm-2.72.664c1.871.976 3.15 2.926 3.15 5.167v2.13h-6.298V7.55c0-2.241 1.279-4.19 3.149-5.167zM8.058 7.55c0-3.215 2.632-5.831 5.868-5.831.198 0 .395.01.589.029a7.523 7.523 0 00-2.737 5.802v2.13h-3.72V7.55zM5.479 42.28H4.265a2.362 2.362 0 01-2.363-2.357V11.398H5.48v30.883z" fill="#020288"/><path d="M38.453 44H25.91a3.364 3.364 0 01-3.364-3.364V24.872h19.27v15.764A3.364 3.364 0 0138.453 44z" fill="#9AF4BE"/><path d="M35.865 29.987a.86.86 0 01-.86-.86v-4.763c0-1.55-1.272-2.811-2.837-2.811-1.565 0-2.838 1.26-2.838 2.81v4.765a.86.86 0 01-1.719 0v-4.764c0-2.498 2.044-4.53 4.557-4.53 2.512 0 4.556 2.032 4.556 4.53v4.764a.86.86 0 01-.859.859z" fill="#020288"/></svg>