<svg width="20" height="20" fill="none" xmlns="http://www.w3.org/2000/svg"><path d="M10 3.226A6.782 6.782 0 003.226 10 6.782 6.782 0 0010 16.774 6.782 6.782 0 0016.774 10 6.782 6.782 0 0010 3.226zm.544 7.177H9.375v.726h1.653a.645.645 0 110 1.29H9.375v1.21a.645.645 0 11-1.29 0v-1.21h-.323a.645.645 0 110-1.29h.323v-.726h-.323a.645.645 0 110-1.29h.323V6.37c0-.356.288-.645.645-.645h1.814c1.29 0 2.34 1.049 2.34 2.339a2.342 2.342 0 01-2.34 2.338zm0-3.387H9.375v2.097h1.17a1.05 1.05 0 000-2.097zM10 3.226A6.782 6.782 0 003.226 10 6.782 6.782 0 0010 16.774 6.782 6.782 0 0016.774 10 6.782 6.782 0 0010 3.226zm.544 7.177H9.375v.726h1.653a.645.645 0 110 1.29H9.375v1.21a.645.645 0 11-1.29 0v-1.21h-.323a.645.645 0 110-1.29h.323v-.726h-.323a.645.645 0 110-1.29h.323V6.37c0-.356.288-.645.645-.645h1.814c1.29 0 2.34 1.049 2.34 2.339a2.342 2.342 0 01-2.34 2.338zm0-3.387H9.375v2.097h1.17a1.05 1.05 0 000-2.097zM10 0C4.473 0 0 4.473 0 10s4.473 10 10 10 10-4.473 10-10S15.527 0 10 0zm0 18.064c-4.447 0-8.065-3.617-8.065-8.064S5.553 1.935 10 1.935c4.447 0 8.064 3.618 8.064 8.065 0 4.447-3.617 8.064-8.064 8.064zm0-14.838A6.782 6.782 0 003.226 10 6.782 6.782 0 0010 16.774 6.782 6.782 0 0016.774 10 6.782 6.782 0 0010 3.226zm.544 7.177H9.375v.726h1.653a.645.645 0 110 1.29H9.375v1.21a.645.645 0 11-1.29 0v-1.21h-.323a.645.645 0 110-1.29h.323v-.726h-.323a.645.645 0 110-1.29h.323V6.37c0-.356.288-.645.645-.645h1.814c1.29 0 2.34 1.049 2.34 2.339a2.342 2.342 0 01-2.34 2.338zm0-3.387H9.375v2.097h1.17a1.05 1.05 0 000-2.097z" fill="#74CA5E"/></svg>