<svg width="31" height="28" fill="none" xmlns="http://www.w3.org/2000/svg"><path d="M26.136 7.155V0H4.864v7.155L0 10.52V28h31V10.52l-4.864-3.365zM11.02 19.046l-9.203 6.366v-12.73l9.203 6.364zm4.481-.937l11.758 8.132H3.742L15.5 18.11zm4.48.937l9.204-6.365v12.73l-9.203-6.365zm8.55-8.074l-2.394 1.655v-3.31l2.393 1.655zM24.32 1.76v12.125l-5.902 4.082-2.918-2.019-2.918 2.019-5.902-4.082V1.759h17.64zM4.864 12.627L2.47 10.973l2.393-1.655v3.31z" fill="#025BB1"/><path d="M9.246 4.037H15.5v1.759H9.246V4.037zm0 4.037h12.507v1.76H9.246v-1.76zm0 4.037h12.507v1.76H9.246v-1.76z" fill="#025BB1"/></svg>