<svg width="18" height="18" fill="none" xmlns="http://www.w3.org/2000/svg"><path d="M1.5 10.888h6.938V18H2.811c-.72 0-1.312-.591-1.312-1.31v-5.802zm15 0v5.802c0 .719-.592 1.31-1.313 1.31H9.564v-7.112H16.5zM0 6.584v1.871c0 .719.593 1.31 1.313 1.31h7.125V5.274H1.311C.593 5.274 0 5.865 0 6.584zm16.688-1.31H9.563v4.491h7.124c.72 0 1.313-.591 1.313-1.31V6.584c0-.719-.593-1.31-1.313-1.31z" fill="#fff"/><path d="M9 6.055a.56.56 0 01-.556-.643C8.72 3.54 10.186 0 13.747 0 15.779 0 16.5 1.097 16.5 2.035c0 1.669-2.327 4.02-7.5 4.02zm4.747-4.931c-2.687 0-3.707 2.549-4.045 3.792 2.12-.099 3.456-.634 4.226-1.09 1.067-.632 1.447-1.34 1.447-1.791 0-.673-.84-.911-1.628-.911z" fill="#fff"/><path d="M9 6.055c-5.172 0-7.5-2.35-7.5-4.02 0-.938.722-2.034 2.755-2.034 3.56 0 5.025 3.54 5.302 5.411a.562.562 0 01-.556.643zM4.256 1.124c-.788 0-1.63.24-1.63.911 0 .956 1.676 2.698 5.673 2.882-.338-1.244-1.357-3.793-4.043-3.793z" fill="#fff"/></svg>