<svg width="30" height="26" fill="none" xmlns="http://www.w3.org/2000/svg"><path d="M27.811 2.554C26.331.907 24.28 0 22.031 0c-3.16 0-5.162 1.852-6.284 3.406-.291.403-.54.807-.747 1.188-.208-.38-.456-.785-.747-1.188C13.131 1.852 11.13 0 7.97 0c-2.248 0-4.3.907-5.78 2.554C.777 4.125 0 6.23 0 8.48c0 2.45.975 4.727 3.067 7.168 1.87 2.182 4.56 4.431 7.676 7.036 1.161.97 2.362 1.974 3.64 3.07l.038.034a.887.887 0 001.158 0l.038-.033c1.278-1.097 2.479-2.101 3.64-3.072 3.115-2.604 5.806-4.853 7.676-7.035C29.025 13.206 30 10.928 30 8.479c0-2.25-.777-4.354-2.189-5.925zM18.117 21.37A371.825 371.825 0 0015 23.994c-1.086-.926-2.116-1.787-3.117-2.624C5.786 16.273 1.758 12.906 1.758 8.48c0-1.83.621-3.53 1.75-4.786 1.14-1.27 2.725-1.97 4.46-1.97 2.41 0 3.969 1.457 4.85 2.679a10.142 10.142 0 011.346 2.624.878.878 0 00.836.595c.38 0 .718-.24.836-.595.14-.424.554-1.529 1.345-2.624.883-1.222 2.44-2.679 4.85-2.679 1.736 0 3.32.7 4.461 1.97 1.129 1.256 1.75 2.956 1.75 4.785 0 4.427-4.028 7.794-10.125 12.891z" fill="#74CA5E"/></svg>