<svg width="44" height="44" fill="none" xmlns="http://www.w3.org/2000/svg"><g clip-path="url(#clip0)"><path d="M22 44a.86.86 0 01-.723-.394l-3.988-6.192a19.095 19.095 0 01-10.12-6.533 19.052 19.052 0 01-4.17-11.88A18.873 18.873 0 018.564 5.565 18.877 18.877 0 0122 0c5.075 0 9.847 1.976 13.436 5.565A18.877 18.877 0 0141 19.001c0 4.308-1.48 8.527-4.17 11.88a19.095 19.095 0 01-10.121 6.533l-3.988 6.192A.86.86 0 0122 44zm0-42.281C12.47 1.719 4.717 9.472 4.717 19c0 8.061 5.472 14.98 13.307 16.824a.86.86 0 01.525.37L22 41.554l3.45-5.357a.86.86 0 01.526-.371C33.81 33.98 39.282 27.062 39.282 19 39.282 9.471 31.53 1.72 22 1.72z" fill="#020288"/><path d="M22 31.404c6.85 0 12.403-5.553 12.403-12.403C34.403 12.151 28.85 6.6 22 6.6c-6.85 0-12.402 5.553-12.402 12.402 0 6.85 5.552 12.403 12.402 12.403z" fill="#E2C4FF"/><path d="M27.214 13.575h-1.946v-.141a3.286 3.286 0 00-3.277-3.287 3.286 3.286 0 00-3.277 3.287v.14h-1.929a.86.86 0 00-.86.86v8.64a2.693 2.693 0 002.691 2.69h6.768a2.693 2.693 0 002.69-2.69v-8.64a.86.86 0 00-.86-.86zm-6.781-.141c0-.865.699-1.568 1.558-1.568.86 0 1.559.703 1.559 1.568v.14h-3.117v-.14zm5.922 9.64a.973.973 0 01-.971.97h-6.768a.973.973 0 01-.971-.97v-7.78h1.069v1.504a.86.86 0 001.719 0v-1.505h3.117v1.505a.86.86 0 001.718 0v-1.505h1.087v7.78z" fill="#020288"/></g><defs><clipPath id="clip0"><path fill="#fff" d="M0 0h44v44H0z"/></clipPath></defs></svg>