<svg width="35" height="20" fill="none" xmlns="http://www.w3.org/2000/svg"><path d="M7.51 15H3.106l-.175.871c-.058.315.03.643.234.886.204.243.525.386.845.386h3.34a3.833 3.833 0 01-.058-.714c0-.5.073-.972.218-1.429zM23.085.4c-.204-.257-.51-.4-.845-.4H6.927c-.525 0-.977.371-1.08.871l-.101.558h3.369c1.4 0 2.552 1.128 2.552 2.5 0 .914-.51 1.7-1.255 2.142.744.443 1.255 1.229 1.255 2.143 0 .915-.51 1.7-1.255 2.143a2.6 2.6 0 011.036 1.157c.306-.057.627-.085.948-.085 2.814 0 5.104 2.242 5.104 5 0 .242-.015.485-.058.714h1.516c.51 0 .963-.357 1.065-.843l3.281-15c.073-.314 0-.643-.219-.9zm4.988 3.886h-3.12c-.526 0-.963.357-1.08.843L21.54 15.843c-.073.314 0 .643.218.9.204.257.51.4.846.4h.788a3.829 3.829 0 01-.059-.714c0-2.758 2.29-5 5.105-5 2.814 0 5.104 2.242 5.104 5 0 .157 0 .3-.03.457a.931.931 0 00.365-.586l1.094-5a1.27 1.27 0 00.029-.229c0-3.742-3.106-6.785-6.927-6.785z" fill="#fff"/><path d="M9.115 5H4.01c-.603 0-1.093-.48-1.093-1.071 0-.592.49-1.072 1.093-1.072h5.105c.603 0 1.093.48 1.093 1.072C10.208 4.52 9.718 5 9.115 5zm0 4.286H2.552c-.604 0-1.094-.48-1.094-1.072 0-.591.49-1.071 1.094-1.071h6.563c.603 0 1.093.48 1.093 1.071 0 .592-.49 1.072-1.093 1.072zm0 4.285H1.094C.49 13.571 0 13.091 0 12.5s.49-1.071 1.094-1.071h8.02c.604 0 1.094.48 1.094 1.071s-.49 1.071-1.093 1.071zM28.438 20c-2.01 0-3.646-1.601-3.646-3.571 0-1.97 1.636-3.572 3.645-3.572 2.01 0 3.646 1.602 3.646 3.572S30.447 20 28.438 20zm-16.042 0c-2.01 0-3.646-1.601-3.646-3.571 0-1.97 1.636-3.572 3.646-3.572s3.646 1.602 3.646 3.572S14.405 20 12.396 20z" fill="#fff"/></svg>