<svg width="30" height="30" fill="none" xmlns="http://www.w3.org/2000/svg"><path d="M13.211 0C5.927 0 0 5.927 0 13.211c0 7.285 5.927 13.212 13.211 13.212 7.285 0 13.212-5.927 13.212-13.212C26.423 5.927 20.496 0 13.21 0zm0 23.984c-5.94 0-10.772-4.833-10.772-10.773 0-5.94 4.833-10.772 10.772-10.772 5.94 0 10.773 4.833 10.773 10.772 0 5.94-4.833 10.773-10.773 10.773z" fill="url(#paint0_linear)"/><path d="M29.643 27.918l-6.992-6.992a1.219 1.219 0 10-1.725 1.725l6.992 6.992a1.215 1.215 0 001.725 0 1.219 1.219 0 000-1.725z" fill="url(#paint1_linear)"/><defs><linearGradient id="paint0_linear" x1="15" y1="0" x2="15" y2="30" gradientUnits="userSpaceOnUse"><stop stop-color="#0167C6"/><stop offset="1" stop-color="#014080"/></linearGradient><linearGradient id="paint1_linear" x1="15" y1="0" x2="15" y2="30" gradientUnits="userSpaceOnUse"><stop stop-color="#0167C6"/><stop offset="1" stop-color="#014080"/></linearGradient></defs></svg>