<svg width="26" height="30" fill="none" xmlns="http://www.w3.org/2000/svg"><path d="M12.803 14.451c2.063 0 3.848-.712 5.308-2.117 1.459-1.404 2.198-3.123 2.198-5.109 0-1.985-.74-3.703-2.199-5.109C16.651.712 14.866 0 12.803 0c-2.062 0-3.848.712-5.307 2.117C6.037 3.52 5.297 5.24 5.297 7.225c0 1.986.74 3.705 2.2 5.11 1.459 1.404 3.245 2.116 5.306 2.116zM8.788 3.36c1.12-1.078 2.433-1.602 4.015-1.602 1.583 0 2.896.524 4.016 1.602s1.664 2.342 1.664 3.865c0 1.524-.544 2.788-1.664 3.866-1.12 1.078-2.433 1.602-4.016 1.602-1.582 0-2.895-.524-4.015-1.602-1.12-1.078-1.664-2.342-1.664-3.866 0-1.523.544-2.787 1.664-3.865zm17.149 19.709a17.218 17.218 0 00-.253-1.896 14.405 14.405 0 00-.484-1.906 9.242 9.242 0 00-.814-1.777 6.737 6.737 0 00-1.227-1.54 5.444 5.444 0 00-1.763-1.066 6.302 6.302 0 00-2.25-.393c-.319 0-.626.126-1.22.498-.366.23-.794.495-1.271.79-.409.25-.962.484-1.645.697a6.762 6.762 0 01-2.011.313 6.767 6.767 0 01-2.011-.313c-.682-.213-1.236-.447-1.643-.698-.473-.29-.901-.556-1.272-.789-.594-.372-.902-.498-1.22-.498-.81 0-1.567.132-2.25.393A5.44 5.44 0 002.84 15.95a6.739 6.739 0 00-1.227 1.54 9.258 9.258 0 00-.814 1.777 14.512 14.512 0 00-.484 1.906 17.1 17.1 0 00-.253 1.896A24.983 24.983 0 000 24.841c0 1.566.517 2.833 1.537 3.768 1.007.923 2.34 1.39 3.96 1.39h15.006c1.62 0 2.953-.467 3.96-1.39C25.483 27.675 26 26.407 26 24.84c0-.604-.021-1.2-.063-1.771zm-2.733 4.267c-.666.61-1.55.906-2.701.906H5.497c-1.152 0-2.036-.297-2.7-.906-.654-.598-.97-1.414-.97-2.495 0-.562.018-1.117.057-1.65.038-.523.114-1.097.228-1.707a12.86 12.86 0 01.426-1.68c.163-.492.386-.978.662-1.446a5.02 5.02 0 01.902-1.138 3.614 3.614 0 011.173-.702c.43-.164.914-.253 1.438-.267.064.033.178.095.363.211.375.236.808.504 1.286.798.54.331 1.234.63 2.064.888a8.652 8.652 0 002.573.399 8.65 8.65 0 002.573-.399c.83-.258 1.525-.557 2.065-.888.49-.301.91-.562 1.286-.798a4.84 4.84 0 01.362-.211 4.35 4.35 0 011.439.267c.465.177.86.414 1.172.702.335.308.639.691.902 1.138.277.468.5.955.663 1.445.17.513.314 1.078.426 1.68.114.612.19 1.186.228 1.708.039.53.059 1.086.059 1.65 0 1.08-.318 1.897-.97 2.495z" fill="#fff"/></svg>