<svg width="18" height="18" viewBox="0 0 18 18" fill="none" xmlns="http://www.w3.org/2000/svg">
<path d="M1.5 10.8883H8.4375V18H2.8125C2.0925 18 1.5 17.4086 1.5 16.69V10.8883Z" fill="white"/>
<path d="M16.5 10.8883V16.69C16.5 17.4086 15.9075 18 15.1875 18H9.5625V10.8883H16.5Z" fill="white"/>
<path d="M0 6.5839V8.4554C0 9.17405 0.5925 9.76544 1.3125 9.76544H8.4375V5.27386H1.3125C0.5925 5.27386 0 5.86525 0 6.5839Z" fill="white"/>
<path d="M16.6875 5.27386H9.5625V9.76544H16.6875C17.4075 9.76544 18 9.17405 18 8.4554V6.5839C18 5.86525 17.4075 5.27386 16.6875 5.27386Z" fill="white"/>
<path d="M9 6.0554C8.8365 6.0554 8.6805 5.98428 8.57475 5.86076C8.4675 5.73724 8.42025 5.5733 8.4435 5.4116C8.721 3.54011 10.1858 0 13.7467 0C15.7793 0.000748596 16.5 1.09669 16.5 2.03543C16.5 3.70405 14.1728 6.0554 9 6.0554ZM13.7467 1.12364C11.0603 1.12364 10.0403 3.67261 9.702 4.91603C11.8215 4.81722 13.158 4.28197 13.9275 3.82608C14.9948 3.19351 15.375 2.48609 15.375 2.03469C15.375 1.36245 14.5343 1.12364 13.7467 1.12364Z" fill="white"/>
<path d="M9.00075 6.0554C3.828 6.0554 1.50075 3.70405 1.50075 2.03543C1.50075 1.09669 2.22225 0.000748596 4.25475 0.000748596C7.815 0.000748596 9.27975 3.54086 9.55725 5.41235C9.5805 5.57405 9.53325 5.73799 9.426 5.86151C9.32025 5.98428 9.16425 6.0554 9.00075 6.0554ZM4.25475 1.12364C3.46725 1.12364 2.62575 1.36319 2.62575 2.03543C2.62575 2.99139 4.3005 4.73338 8.298 4.91678C7.9605 3.67261 6.9405 1.12364 4.25475 1.12364Z" fill="white"/>
</svg>
