<svg width="20" height="20" fill="none" xmlns="http://www.w3.org/2000/svg"><g opacity=".3" fill="#000"><path d="M10 0C4.477 0 0 4.477 0 10s4.477 10 10 10 10-4.477 10-10S15.523 0 10 0zm0 18.242c-4.545 0-8.242-3.697-8.242-8.242 0-4.545 3.697-8.242 8.242-8.242 4.545 0 8.242 3.697 8.242 8.242 0 4.545-3.697 8.242-8.242 8.242z"/><path d="M10 2.93A7.078 7.078 0 002.93 10 7.078 7.078 0 0010 17.07 7.078 7.078 0 0017.07 10 7.078 7.078 0 0010 2.93zm.586 7.313L6.658 14.17l-.829-.829 3.585-3.585v-5.07h1.172v5.556z"/></g></svg>