<svg width="18" height="16" fill="none" xmlns="http://www.w3.org/2000/svg"><path d="M3.368.964V3.74c0 .229.094.447.26.605A1746.51 1746.51 0 009 9.421c1.267-1.183.912-.847 1.042-.984a.738.738 0 01.126-.106l4.203-3.987a.835.835 0 00.261-.605V.962a.84.84 0 00-.788-.836C11.17-.048 6.777-.036 4.16.128a.841.841 0 00-.792.836z" fill="#025BB1"/><path d="M17.113 2.93a.738.738 0 00-.347-.266.468.468 0 00-.632.437V4.47a.75.75 0 01-.244.534l-4.222 3.942 4.221 3.928a.73.73 0 01.033 1.037.744.744 0 01-1.045.033L10.59 9.952l-1.082 1.01a.744.744 0 01-1.014 0l-1.082-1.01-4.289 3.99a.743.743 0 01-1.044-.032.729.729 0 01.033-1.037l4.221-3.928L2.11 5.003a.747.747 0 01-.244-.534V3.105a.47.47 0 00-.682-.415c-.178.09-.297.19-.377.383C.214 4.501 0 7.304 0 8.939c0 1.642.222 4.49.81 5.871.036.085.09.163.144.22 1.07 1.117 12.605 1.388 15.818.181a.737.737 0 00.34-.261c.457-.638.888-3.551.888-6.011 0-2.293-.407-5.334-.887-6.009z" fill="#025BB1"/></svg>