<svg width="44" height="44" fill="none" xmlns="http://www.w3.org/2000/svg"><g clip-path="url(#clip0)"><path d="M22 7.102C13.785 7.102 7.102 13.785 7.102 22S13.785 36.898 22 36.898 36.898 30.215 36.898 22 30.215 7.102 22 7.102zm0 28.078c-7.267 0-13.18-5.913-13.18-13.18 0-7.267 5.913-13.18 13.18-13.18 7.267 0 13.18 5.913 13.18 13.18 0 7.267-5.913 13.18-13.18 13.18z" fill="#020288"/><path d="M42.826 24.954C43.376 24.1 44 23.13 44 22c0-1.129-.624-2.099-1.174-2.954-.369-.573-.717-1.114-.828-1.604-.12-.523-.04-1.181.045-1.877.126-1.042.256-2.119-.218-3.1-.483-.999-1.458-1.597-2.32-2.125-.59-.362-1.147-.704-1.471-1.11-.328-.409-.54-1.03-.763-1.688-.324-.952-.692-2.031-1.554-2.718-.857-.684-1.99-.803-2.988-.907-.695-.073-1.352-.142-1.83-.372-.461-.223-.916-.686-1.397-1.176-.71-.724-1.515-1.544-2.607-1.792-1.051-.238-2.067.126-3.048.478-.668.24-1.299.466-1.847.466s-1.179-.226-1.847-.466C19.172.703 18.156.34 17.105.577c-1.092.248-1.897 1.068-2.607 1.792-.481.49-.936.953-1.397 1.176-.478.23-1.135.299-1.83.371-.999.105-2.13.224-2.988.907-.862.688-1.23 1.767-1.554 2.719-.224.658-.435 1.28-.763 1.689-.324.405-.881.747-1.471 1.109-.861.528-1.837 1.126-2.32 2.125-.474.981-.344 2.058-.218 3.1.085.696.164 1.354.045 1.877-.111.49-.46 1.031-.828 1.604C.624 19.9 0 20.87 0 22c0 1.13.624 2.099 1.174 2.954.369.573.717 1.114.828 1.604.12.523.04 1.181-.045 1.877-.126 1.042-.256 2.119.218 3.1.483.999 1.458 1.597 2.32 2.125.59.362 1.147.704 1.471 1.11.328.409.54 1.03.763 1.688.324.952.692 2.031 1.554 2.718.857.684 1.99.803 2.988.907.695.073 1.352.142 1.83.372.461.223.916.686 1.397 1.176.71.724 1.515 1.544 2.607 1.792 1.052.238 2.067-.126 3.048-.478.668-.24 1.299-.466 1.847-.466s1.179.226 1.847.466c.762.273 1.545.554 2.349.554.231 0 .464-.023.699-.076 1.092-.248 1.897-1.068 2.607-1.792.481-.49.936-.953 1.397-1.176.478-.23 1.135-.299 1.83-.371.999-.105 2.13-.224 2.988-.907.862-.688 1.23-1.767 1.554-2.719.224-.658.435-1.28.763-1.689.324-.405.881-.747 1.471-1.109.861-.528 1.837-1.126 2.32-2.125.474-.981.344-2.058.218-3.1-.085-.696-.164-1.354-.045-1.877.111-.49.46-1.03.828-1.604zm-1.446-.93c-.432.673-.88 1.368-1.058 2.153-.186.814-.084 1.654.014 2.465.101.832.196 1.618-.059 2.146-.263.544-.946.963-1.67 1.407-.69.423-1.404.86-1.916 1.5-.515.645-.785 1.44-1.047 2.21-.273.799-.53 1.554-.998 1.928-.465.37-1.257.453-2.096.541-.811.085-1.65.173-2.397.533-.732.353-1.314.946-1.877 1.52-.598.609-1.162 1.184-1.761 1.32-.563.127-1.304-.139-2.088-.42-.777-.279-1.58-.567-2.427-.567-.848 0-1.65.288-2.427.567-.785.282-1.525.547-2.088.42-.6-.136-1.163-.711-1.76-1.32-.564-.574-1.146-1.167-1.879-1.52-.747-.36-1.585-.448-2.396-.533-.839-.088-1.631-.17-2.096-.541-.469-.374-.726-1.13-.998-1.929-.262-.769-.532-1.564-1.048-2.208-.512-.64-1.225-1.078-1.915-1.501-.724-.444-1.407-.863-1.67-1.407-.256-.528-.16-1.314-.06-2.146.099-.811.2-1.65.015-2.465-.179-.785-.626-1.48-1.059-2.153-.463-.72-.9-1.4-.9-2.024 0-.624.437-1.304.9-2.024.433-.673.88-1.368 1.059-2.153.185-.814.084-1.654-.014-2.465-.101-.832-.196-1.618.059-2.146.263-.544.946-.963 1.67-1.407.69-.423 1.404-.86 1.915-1.5.516-.645.787-1.44 1.048-2.21.273-.799.53-1.554.998-1.928.465-.37 1.257-.453 2.096-.541.811-.085 1.65-.173 2.397-.533.732-.353 1.314-.946 1.878-1.52.597-.609 1.161-1.183 1.76-1.32.563-.127 1.304.139 2.088.42.776.279 1.58.567 2.427.567s1.65-.288 2.427-.567c.785-.282 1.525-.547 2.088-.42.6.136 1.163.711 1.76 1.32.564.574 1.146 1.167 1.879 1.52.747.36 1.585.448 2.396.533.839.088 1.631.17 2.096.541.469.374.726 1.13.998 1.929.262.769.532 1.564 1.048 2.208.512.64 1.225 1.078 1.915 1.501.724.444 1.407.863 1.67 1.408.255.527.16 1.313.06 2.145-.099.811-.2 1.65-.015 2.465.179.785.626 1.48 1.058 2.152.464.72.901 1.401.901 2.025 0 .624-.437 1.304-.9 2.024z" fill="#020288"/><path d="M22.001 27.813l-4.912 1.746.143-5.211-3.18-4.132 5.002-1.475 2.947-4.3 2.947 4.3 5.001 1.475-3.179 4.132.143 5.211-4.912-1.747z" fill="#EA587B"/></g><defs><clipPath id="clip0"><path fill="#fff" d="M0 0h44v44H0z"/></clipPath></defs></svg>