<svg width="39" height="52" fill="none" xmlns="http://www.w3.org/2000/svg"><path opacity=".2" d="M38.889 30.445c-.596-7.755-4.207-12.615-7.392-16.903C28.547 9.572 26 6.142 26 1.085a1.085 1.085 0 00-1.714-.881c-4.784 3.423-8.776 9.193-10.17 14.698-.968 3.833-1.096 8.141-1.114 10.987-4.418-.944-5.419-7.552-5.43-7.624a1.089 1.089 0 00-.563-.804 1.079 1.079 0 00-.982-.018c-.232.112-5.686 2.884-6.004 13.95A18.35 18.35 0 000 32.5c0 10.75 8.748 19.498 19.5 19.498.015.001.03.004.043 0h.014C30.283 51.968 39 43.232 39 32.5c0-.54-.111-2.055-.111-2.055zM19.5 49.832c-3.584 0-6.5-3.106-6.5-6.924 0-.13-.001-.261.008-.422.044-1.61.35-2.71.685-3.44.628 1.35 1.752 2.59 3.577 2.59.599 0 1.083-.484 1.083-1.083 0-1.542.032-3.321.416-4.927.342-1.424 1.159-2.94 2.193-4.153.46 1.576 1.358 2.851 2.234 4.097 1.253 1.781 2.55 3.623 2.777 6.764.013.186.027.373.027.574 0 3.818-2.916 6.924-6.5 6.924z" fill="#000"/></svg>