<svg width="182" height="182" fill="none" xmlns="http://www.w3.org/2000/svg"><path d="M161.426 0H20.585C9.232 0 0 9.845 0 21.97v138.085C0 172.165 9.232 182 20.585 182h140.84c11.353 0 20.575-9.835 20.575-21.945V21.97C182.001 9.845 172.778 0 161.426 0zm-43.735 32.674c10.978 0 19.882 9.498 19.882 21.21 0 11.71-8.904 21.21-19.882 21.21-10.982 0-19.882-9.5-19.882-21.21 0-11.712 8.9-21.21 19.882-21.21zM154.97 161.7H29.877c-5.491 0-7.937-4.238-5.461-9.466l34.121-72.097c2.473-5.228 7.184-5.695 10.521-1.043l34.311 47.832c3.336 4.652 9.169 5.048 13.029.88l8.394-9.067c3.857-4.168 9.54-3.652 12.688 1.145l21.735 33.12c3.142 4.804 1.246 8.696-4.245 8.696z" fill="#E0E0E0"/></svg>